<mxfile host="drawio-plugin" modified="2023-08-09T12:38:49.668Z" agent="5.0 (Windows NT 6.2; Win64; x64) AppleWebKit/537.36 (KHTML, like Gecko) Chrome/104.0.5112.102 Safari/537.36" etag="1Yk55Uz2Wsl0uXyMhfaS" version="20.5.3" type="embed"><diagram id="QVUzid1m6UFfnPe9JsCl" name="Страница 1"><mxGraphModel dx="1214" dy="725" grid="1" gridSize="10" guides="1" tooltips="1" connect="1" arrows="1" fold="1" page="1" pageScale="1" pageWidth="827" pageHeight="1169" background="#66B2FF" math="0" shadow="0"><root><mxCell id="0"/><mxCell id="1" parent="0"/><mxCell id="qlJqQ7ePNrHaWUw7kzsz-60" value="" style="rounded=1;whiteSpace=wrap;html=1;dashed=1;arcSize=7;shadow=0;fillColor=none;strokeColor=#666666;fillOpacity=20;strokeWidth=2;" parent="1" vertex="1"><mxGeometry x="1520" y="330" width="340" height="230" as="geometry"/></mxCell><mxCell id="qlJqQ7ePNrHaWUw7kzsz-31" value="" style="rounded=1;whiteSpace=wrap;html=1;dashed=1;arcSize=7;shadow=0;fillColor=none;strokeColor=#666666;fillOpacity=20;strokeWidth=2;" parent="1" vertex="1"><mxGeometry x="1120" y="840" width="1040" height="350" as="geometry"/></mxCell><mxCell id="qlJqQ7ePNrHaWUw7kzsz-33" value="&lt;font style=&quot;font-size: 16px;&quot; color=&quot;#fcfcfc&quot;&gt;Training&lt;/font&gt;" style="swimlane;whiteSpace=wrap;html=1;rounded=1;arcSize=27;startSize=40;swimlaneLine=1;fillOpacity=100;fillStyle=solid;fillColor=#1A1A1A;noLabel=0;container=0;collapsible=0;backgroundOutline=0;comic=0;sketch=0;glass=0;swimlaneFillColor=#4D4D4D;strokeColor=none;opacity=40;shadow=0;align=left;spacingLeft=24;fontColor=default;gradientColor=none;" parent="1" vertex="1"><mxGeometry x="1130" y="850" width="250" height="200" as="geometry"><mxRectangle x="130" y="310" width="140" height="30" as="alternateBounds"/></mxGeometry></mxCell><mxCell id="qlJqQ7ePNrHaWUw7kzsz-37" value="&lt;span style=&quot;font-size: 16px; font-weight: 700;&quot;&gt;Training&lt;/span&gt;&lt;span style=&quot;font-size: 16px;&quot;&gt;&lt;br&gt;Бизнес-логика&lt;br&gt;тренировок&lt;br&gt;&lt;/span&gt;" style="rounded=1;whiteSpace=wrap;html=1;shadow=0;glass=0;comic=0;sketch=0;fillStyle=solid;strokeColor=#696969;fontColor=#FCFCFC;fillColor=#FFFFFF;gradientColor=none;fillOpacity=10;arcSize=20;opacity=60;align=left;spacing=16;" parent="qlJqQ7ePNrHaWUw7kzsz-33" vertex="1"><mxGeometry x="20" y="110" width="210" height="70" as="geometry"/></mxCell><mxCell id="qlJqQ7ePNrHaWUw7kzsz-34" value="&lt;span style=&quot;font-size: 16px; font-weight: 700;&quot;&gt;Training&lt;/span&gt;" style="rounded=1;whiteSpace=wrap;html=1;shadow=0;glass=0;comic=0;sketch=0;fillStyle=solid;strokeColor=#696969;fontColor=#FCFCFC;fillColor=#FFFFFF;gradientColor=none;fillOpacity=10;arcSize=20;opacity=60;align=left;spacing=16;" parent="qlJqQ7ePNrHaWUw7kzsz-33" vertex="1"><mxGeometry x="20" y="48" width="210" height="42" as="geometry"/></mxCell><mxCell id="qlJqQ7ePNrHaWUw7kzsz-35" value="&lt;font size=&quot;1&quot; color=&quot;#ffffff&quot;&gt;&lt;b style=&quot;font-size: 12px;&quot;&gt;Controller&lt;/b&gt;&lt;/font&gt;" style="rounded=1;whiteSpace=wrap;html=1;shadow=0;glass=0;comic=0;sketch=0;fillStyle=solid;strokeColor=none;fillColor=#9E009E;arcSize=50;fillOpacity=100;" parent="qlJqQ7ePNrHaWUw7kzsz-33" vertex="1"><mxGeometry x="150" y="59" width="70" height="20" as="geometry"/></mxCell><mxCell id="qlJqQ7ePNrHaWUw7kzsz-36" value="&lt;font size=&quot;1&quot; color=&quot;#ffffff&quot;&gt;&lt;b style=&quot;font-size: 12px;&quot;&gt;Service&lt;/b&gt;&lt;/font&gt;" style="rounded=1;whiteSpace=wrap;html=1;shadow=0;glass=0;comic=0;sketch=0;fillStyle=solid;strokeColor=none;fillColor=#009900;arcSize=50;fillOpacity=100;" parent="qlJqQ7ePNrHaWUw7kzsz-33" vertex="1"><mxGeometry x="150" y="135" width="70" height="20" as="geometry"/></mxCell><mxCell id="qlJqQ7ePNrHaWUw7kzsz-76" style="edgeStyle=orthogonalEdgeStyle;curved=1;jumpStyle=arc;orthogonalLoop=1;jettySize=auto;html=1;exitX=0.5;exitY=1;exitDx=0;exitDy=0;strokeColor=#FAFAFA;fontSize=16;fontColor=#FFFFFF;" parent="qlJqQ7ePNrHaWUw7kzsz-33" source="qlJqQ7ePNrHaWUw7kzsz-34" target="qlJqQ7ePNrHaWUw7kzsz-37" edge="1"><mxGeometry relative="1" as="geometry"/></mxCell><mxCell id="qlJqQ7ePNrHaWUw7kzsz-11" value="" style="rounded=1;whiteSpace=wrap;html=1;dashed=1;arcSize=7;shadow=0;fillColor=none;strokeColor=#666666;fillOpacity=20;strokeWidth=2;" parent="1" vertex="1"><mxGeometry x="370" y="840" width="710" height="350" as="geometry"/></mxCell><mxCell id="qlJqQ7ePNrHaWUw7kzsz-12" value="&lt;font style=&quot;font-size: 16px;&quot; color=&quot;#fcfcfc&quot;&gt;Auth&lt;/font&gt;" style="swimlane;whiteSpace=wrap;html=1;rounded=1;arcSize=27;startSize=40;swimlaneLine=1;fillOpacity=100;fillStyle=solid;fillColor=#1A1A1A;noLabel=0;container=0;collapsible=0;backgroundOutline=0;comic=0;sketch=0;glass=0;gradientColor=none;swimlaneFillColor=#4D4D4D;strokeColor=none;opacity=40;shadow=0;align=left;spacingLeft=24;" parent="1" vertex="1"><mxGeometry x="380" y="850" width="320" height="200" as="geometry"><mxRectangle x="130" y="310" width="140" height="30" as="alternateBounds"/></mxGeometry></mxCell><mxCell id="qlJqQ7ePNrHaWUw7kzsz-13" value="&lt;font style=&quot;font-size: 16px;&quot;&gt;&lt;b&gt;Auth&lt;/b&gt;&lt;span style=&quot;font-size: 14px;&quot;&gt;&lt;br&gt;&lt;/span&gt;&lt;/font&gt;" style="rounded=1;whiteSpace=wrap;html=1;shadow=0;glass=0;comic=0;sketch=0;fillStyle=solid;strokeColor=#696969;fontColor=#FCFCFC;fillColor=#FFFFFF;gradientColor=none;fillOpacity=10;arcSize=20;opacity=60;align=left;spacing=16;" parent="qlJqQ7ePNrHaWUw7kzsz-12" vertex="1"><mxGeometry x="20" y="48" width="280" height="42" as="geometry"/></mxCell><mxCell id="qlJqQ7ePNrHaWUw7kzsz-14" value="&lt;font size=&quot;1&quot; color=&quot;#ffffff&quot;&gt;&lt;b style=&quot;font-size: 12px;&quot;&gt;Controller&lt;/b&gt;&lt;/font&gt;" style="rounded=1;whiteSpace=wrap;html=1;shadow=0;glass=0;comic=0;sketch=0;fillStyle=solid;strokeColor=none;fillColor=#9E009E;arcSize=50;fillOpacity=100;" parent="qlJqQ7ePNrHaWUw7kzsz-12" vertex="1"><mxGeometry x="198" y="60" width="90" height="20" as="geometry"/></mxCell><mxCell id="qlJqQ7ePNrHaWUw7kzsz-15" value="&lt;font size=&quot;1&quot; color=&quot;#ffffff&quot;&gt;&lt;b style=&quot;font-size: 12px;&quot;&gt;Service&lt;/b&gt;&lt;/font&gt;" style="rounded=1;whiteSpace=wrap;html=1;shadow=0;glass=0;comic=0;sketch=0;fillStyle=solid;strokeColor=none;fillColor=#009900;arcSize=50;fillOpacity=100;" parent="qlJqQ7ePNrHaWUw7kzsz-12" vertex="1"><mxGeometry x="198" y="135" width="90" height="20" as="geometry"/></mxCell><mxCell id="qlJqQ7ePNrHaWUw7kzsz-77" style="edgeStyle=orthogonalEdgeStyle;curved=1;jumpStyle=arc;orthogonalLoop=1;jettySize=auto;html=1;exitX=0.5;exitY=1;exitDx=0;exitDy=0;entryX=0.5;entryY=0;entryDx=0;entryDy=0;strokeColor=#FAFAFA;fontSize=16;fontColor=#FFFFFF;" parent="qlJqQ7ePNrHaWUw7kzsz-12" source="qlJqQ7ePNrHaWUw7kzsz-13" target="qlJqQ7ePNrHaWUw7kzsz-16" edge="1"><mxGeometry relative="1" as="geometry"/></mxCell><mxCell id="qlJqQ7ePNrHaWUw7kzsz-112" style="edgeStyle=orthogonalEdgeStyle;rounded=0;orthogonalLoop=1;jettySize=auto;html=1;exitX=0.5;exitY=1;exitDx=0;exitDy=0;" parent="qlJqQ7ePNrHaWUw7kzsz-12" source="qlJqQ7ePNrHaWUw7kzsz-16" target="qlJqQ7ePNrHaWUw7kzsz-16" edge="1"><mxGeometry relative="1" as="geometry"/></mxCell><mxCell id="qlJqQ7ePNrHaWUw7kzsz-16" value="&lt;font style=&quot;font-size: 16px;&quot;&gt;&lt;b&gt;Auth&lt;/b&gt;&lt;br&gt;Бизнес-логика &lt;br&gt;авторизации&lt;br&gt;&lt;/font&gt;" style="rounded=1;whiteSpace=wrap;html=1;shadow=0;glass=0;comic=0;sketch=0;fillStyle=solid;strokeColor=#696969;fontColor=#FCFCFC;fillColor=#FFFFFF;gradientColor=none;fillOpacity=10;arcSize=20;opacity=60;align=left;spacing=16;" parent="qlJqQ7ePNrHaWUw7kzsz-12" vertex="1"><mxGeometry x="20" y="110" width="280" height="70" as="geometry"/></mxCell><mxCell id="qlJqQ7ePNrHaWUw7kzsz-17" value="&lt;blockquote style=&quot;margin: 0 0 0 40px; border: none; padding: 0px;&quot;&gt;&lt;font style=&quot;font-size: 16px;&quot; color=&quot;#fcfcfc&quot;&gt;Site-user&lt;/font&gt;&lt;/blockquote&gt;" style="swimlane;whiteSpace=wrap;html=1;rounded=1;arcSize=27;startSize=40;swimlaneLine=1;fillOpacity=100;fillStyle=solid;fillColor=#1A1A1A;noLabel=0;container=0;collapsible=0;backgroundOutline=0;comic=0;sketch=0;glass=0;gradientColor=none;swimlaneFillColor=#4D4D4D;strokeColor=none;opacity=40;shadow=0;align=left;" parent="1" vertex="1"><mxGeometry x="750" y="850" width="320" height="330" as="geometry"><mxRectangle x="130" y="310" width="140" height="30" as="alternateBounds"/></mxGeometry></mxCell><mxCell id="qlJqQ7ePNrHaWUw7kzsz-18" style="edgeStyle=orthogonalEdgeStyle;curved=1;jumpStyle=arc;orthogonalLoop=1;jettySize=auto;html=1;exitX=0.5;exitY=1;exitDx=0;exitDy=0;entryX=0.5;entryY=0;entryDx=0;entryDy=0;strokeColor=#FAFAFA;fontSize=16;fontColor=#FFFFFF;" parent="qlJqQ7ePNrHaWUw7kzsz-17" source="qlJqQ7ePNrHaWUw7kzsz-19" target="qlJqQ7ePNrHaWUw7kzsz-22" edge="1"><mxGeometry relative="1" as="geometry"/></mxCell><mxCell id="qlJqQ7ePNrHaWUw7kzsz-19" value="&lt;span style=&quot;font-size: 16px; font-weight: 700;&quot;&gt;Site-user&lt;/span&gt;" style="rounded=1;whiteSpace=wrap;html=1;shadow=0;glass=0;comic=0;sketch=0;fillStyle=solid;strokeColor=#696969;fontColor=#FCFCFC;fillColor=#FFFFFF;gradientColor=none;fillOpacity=10;arcSize=20;opacity=60;align=left;spacing=16;" parent="qlJqQ7ePNrHaWUw7kzsz-17" vertex="1"><mxGeometry x="20" y="48" width="280" height="42" as="geometry"/></mxCell><mxCell id="qlJqQ7ePNrHaWUw7kzsz-20" value="&lt;font size=&quot;1&quot; color=&quot;#ffffff&quot;&gt;&lt;b style=&quot;font-size: 12px;&quot;&gt;Controller&lt;/b&gt;&lt;/font&gt;" style="rounded=1;whiteSpace=wrap;html=1;shadow=0;glass=0;comic=0;sketch=0;fillStyle=solid;strokeColor=none;fillColor=#9E009E;arcSize=50;fillOpacity=100;" parent="qlJqQ7ePNrHaWUw7kzsz-17" vertex="1"><mxGeometry x="198" y="60" width="90" height="20" as="geometry"/></mxCell><mxCell id="qlJqQ7ePNrHaWUw7kzsz-21" style="edgeStyle=orthogonalEdgeStyle;curved=1;jumpStyle=arc;orthogonalLoop=1;jettySize=auto;html=1;exitX=0.5;exitY=1;exitDx=0;exitDy=0;entryX=0.5;entryY=0;entryDx=0;entryDy=0;strokeColor=#FAFAFA;fontSize=16;fontColor=#FFFFFF;" parent="qlJqQ7ePNrHaWUw7kzsz-17" source="qlJqQ7ePNrHaWUw7kzsz-22" target="qlJqQ7ePNrHaWUw7kzsz-25" edge="1"><mxGeometry relative="1" as="geometry"/></mxCell><mxCell id="qlJqQ7ePNrHaWUw7kzsz-22" value="&lt;font style=&quot;font-size: 16px;&quot;&gt;&lt;span style=&quot;font-weight: 700;&quot;&gt;Site-user&lt;/span&gt;&lt;b&gt;&lt;br&gt;&lt;/b&gt;Бизнес-логика &lt;br&gt;пользователей&lt;b&gt;&lt;br&gt;&lt;/b&gt;&lt;/font&gt;" style="rounded=1;whiteSpace=wrap;html=1;shadow=0;glass=0;comic=0;sketch=0;fillStyle=solid;strokeColor=#696969;fontColor=#FCFCFC;fillColor=#FFFFFF;gradientColor=none;fillOpacity=10;arcSize=20;opacity=60;align=left;spacing=16;" parent="qlJqQ7ePNrHaWUw7kzsz-17" vertex="1"><mxGeometry x="20" y="110" width="280" height="80" as="geometry"/></mxCell><mxCell id="qlJqQ7ePNrHaWUw7kzsz-23" value="&lt;font color=&quot;#ffffff&quot;&gt;&lt;b&gt;Service&lt;/b&gt;&lt;/font&gt;" style="rounded=1;whiteSpace=wrap;html=1;shadow=0;glass=0;comic=0;sketch=0;fillStyle=solid;strokeColor=none;fillColor=#009900;arcSize=50;fillOpacity=100;" parent="qlJqQ7ePNrHaWUw7kzsz-17" vertex="1"><mxGeometry x="198" y="140" width="90" height="20" as="geometry"/></mxCell><mxCell id="qlJqQ7ePNrHaWUw7kzsz-24" value="" style="group" parent="qlJqQ7ePNrHaWUw7kzsz-17" vertex="1" connectable="0"><mxGeometry x="20" y="210" width="280" height="100" as="geometry"/></mxCell><mxCell id="qlJqQ7ePNrHaWUw7kzsz-25" value="&lt;blockquote style=&quot;margin: 0 0 0 40px; border: none; padding: 0px;&quot;&gt;&lt;blockquote style=&quot;margin: 0 0 0 40px; border: none; padding: 0px;&quot;&gt;&lt;font style=&quot;font-size: 16px;&quot;&gt;&lt;b&gt;Users&lt;/b&gt;&lt;/font&gt;&lt;/blockquote&gt;&lt;blockquote style=&quot;margin: 0 0 0 40px; border: none; padding: 0px;&quot;&gt;&lt;font style=&quot;font-size: 16px;&quot;&gt;Хранение&amp;nbsp;&lt;/font&gt;&lt;/blockquote&gt;&lt;blockquote style=&quot;margin: 0 0 0 40px; border: none; padding: 0px;&quot;&gt;&lt;font style=&quot;font-size: 16px;&quot;&gt;пользователей&lt;/font&gt;&lt;/blockquote&gt;&lt;/blockquote&gt;" style="rounded=1;whiteSpace=wrap;html=1;shadow=0;glass=0;comic=0;sketch=0;fillStyle=solid;strokeColor=#696969;fontColor=#FCFCFC;fillColor=#FFFFFF;gradientColor=none;fillOpacity=10;arcSize=20;opacity=60;align=left;" parent="qlJqQ7ePNrHaWUw7kzsz-24" vertex="1"><mxGeometry width="280" height="100" as="geometry"/></mxCell><mxCell id="qlJqQ7ePNrHaWUw7kzsz-26" value="&lt;font size=&quot;1&quot; color=&quot;#ffffff&quot;&gt;&lt;b style=&quot;font-size: 12px;&quot;&gt;Reposotry&lt;/b&gt;&lt;/font&gt;" style="rounded=1;whiteSpace=wrap;html=1;shadow=0;glass=0;comic=0;sketch=0;fillStyle=solid;strokeColor=none;fillColor=#007FFF;arcSize=50;fillOpacity=100;" parent="qlJqQ7ePNrHaWUw7kzsz-24" vertex="1"><mxGeometry x="178" y="10" width="90" height="20" as="geometry"/></mxCell><mxCell id="qlJqQ7ePNrHaWUw7kzsz-27" value="" style="sketch=0;html=1;aspect=fixed;strokeColor=none;shadow=0;align=center;verticalAlign=top;fillColor=#D6D6D6;shape=mxgraph.gcp2.cloud_monitoring;rounded=1;glass=0;comic=0;fillStyle=solid;strokeWidth=2;fontSize=14;fontColor=#FFFFFF;opacity=50;" parent="qlJqQ7ePNrHaWUw7kzsz-24" vertex="1"><mxGeometry x="20" y="20" width="54" height="60" as="geometry"/></mxCell><mxCell id="qlJqQ7ePNrHaWUw7kzsz-28" style="edgeStyle=orthogonalEdgeStyle;curved=1;jumpStyle=arc;orthogonalLoop=1;jettySize=auto;html=1;exitX=0.5;exitY=1;exitDx=0;exitDy=0;dashed=1;strokeColor=#FAFAFA;fontSize=14;fontColor=#FFFFFF;" parent="1" edge="1"><mxGeometry relative="1" as="geometry"><mxPoint x="915" y="1080" as="sourcePoint"/><mxPoint x="915" y="1080" as="targetPoint"/></mxGeometry></mxCell><mxCell id="qlJqQ7ePNrHaWUw7kzsz-29" style="edgeStyle=orthogonalEdgeStyle;curved=1;jumpStyle=arc;orthogonalLoop=1;jettySize=auto;html=1;exitX=0.5;exitY=1;exitDx=0;exitDy=0;dashed=1;strokeColor=#FAFAFA;fontSize=14;fontColor=#FFFFFF;" parent="1" source="qlJqQ7ePNrHaWUw7kzsz-11" target="qlJqQ7ePNrHaWUw7kzsz-11" edge="1"><mxGeometry relative="1" as="geometry"/></mxCell><mxCell id="qlJqQ7ePNrHaWUw7kzsz-39" value="&lt;blockquote style=&quot;margin: 0 0 0 40px; border: none; padding: 0px;&quot;&gt;&lt;b style=&quot;color: rgb(252, 252, 252); background-color: initial; font-size: 16px;&quot;&gt;Friend&lt;/b&gt;&lt;br&gt;&lt;/blockquote&gt;" style="swimlane;whiteSpace=wrap;html=1;rounded=1;arcSize=27;startSize=40;swimlaneLine=1;fillOpacity=100;fillStyle=solid;fillColor=#1A1A1A;noLabel=0;container=0;collapsible=0;backgroundOutline=0;comic=0;sketch=0;glass=0;gradientColor=none;swimlaneFillColor=#4D4D4D;strokeColor=none;opacity=40;shadow=0;align=left;" parent="1" vertex="1"><mxGeometry x="1660" y="850" width="240" height="200" as="geometry"><mxRectangle x="130" y="310" width="140" height="30" as="alternateBounds"/></mxGeometry></mxCell><mxCell id="qlJqQ7ePNrHaWUw7kzsz-44" value="&lt;b style=&quot;border-color: var(--border-color); background-color: initial; font-size: 16px;&quot;&gt;Feedback&lt;/b&gt;&lt;span style=&quot;font-size: 16px;&quot;&gt;&lt;br&gt;Бизнес-логика &lt;br&gt;списка друзей&lt;br&gt;&lt;/span&gt;" style="rounded=1;whiteSpace=wrap;html=1;shadow=0;glass=0;comic=0;sketch=0;fillStyle=solid;strokeColor=#696969;fontColor=#FCFCFC;fillColor=#FFFFFF;gradientColor=none;fillOpacity=10;arcSize=20;opacity=60;align=left;spacing=16;" parent="qlJqQ7ePNrHaWUw7kzsz-39" vertex="1"><mxGeometry x="20" y="110" width="210" height="70" as="geometry"/></mxCell><mxCell id="qlJqQ7ePNrHaWUw7kzsz-40" style="edgeStyle=orthogonalEdgeStyle;curved=1;jumpStyle=arc;orthogonalLoop=1;jettySize=auto;html=1;exitX=0.5;exitY=1;exitDx=0;exitDy=0;strokeColor=#FAFAFA;fontSize=16;fontColor=#FFFFFF;" parent="qlJqQ7ePNrHaWUw7kzsz-39" source="qlJqQ7ePNrHaWUw7kzsz-41" target="qlJqQ7ePNrHaWUw7kzsz-44" edge="1"><mxGeometry relative="1" as="geometry"/></mxCell><mxCell id="qlJqQ7ePNrHaWUw7kzsz-41" value="&lt;font style=&quot;font-size: 14px;&quot;&gt;&lt;b style=&quot;background-color: initial; font-size: 16px;&quot;&gt;Friend&lt;/b&gt;&lt;br&gt;&lt;/font&gt;" style="rounded=1;whiteSpace=wrap;html=1;shadow=0;glass=0;comic=0;sketch=0;fillStyle=solid;strokeColor=#696969;fontColor=#FCFCFC;fillColor=#FFFFFF;gradientColor=none;fillOpacity=10;arcSize=20;opacity=60;align=left;spacing=16;" parent="qlJqQ7ePNrHaWUw7kzsz-39" vertex="1"><mxGeometry x="20" y="44" width="210" height="46" as="geometry"/></mxCell><mxCell id="qlJqQ7ePNrHaWUw7kzsz-42" value="&lt;font size=&quot;1&quot; color=&quot;#ffffff&quot;&gt;&lt;b style=&quot;font-size: 12px;&quot;&gt;Controller&lt;/b&gt;&lt;/font&gt;" style="rounded=1;whiteSpace=wrap;html=1;shadow=0;glass=0;comic=0;sketch=0;fillStyle=solid;strokeColor=none;fillColor=#9E009E;arcSize=50;fillOpacity=100;" parent="qlJqQ7ePNrHaWUw7kzsz-39" vertex="1"><mxGeometry x="150" y="57" width="70" height="20" as="geometry"/></mxCell><mxCell id="qlJqQ7ePNrHaWUw7kzsz-43" value="&lt;font size=&quot;1&quot; color=&quot;#ffffff&quot;&gt;&lt;b style=&quot;font-size: 12px;&quot;&gt;Service&lt;/b&gt;&lt;/font&gt;" style="rounded=1;whiteSpace=wrap;html=1;shadow=0;glass=0;comic=0;sketch=0;fillStyle=solid;strokeColor=none;fillColor=#009900;arcSize=50;fillOpacity=100;" parent="qlJqQ7ePNrHaWUw7kzsz-39" vertex="1"><mxGeometry x="150" y="135" width="70" height="20" as="geometry"/></mxCell><mxCell id="qlJqQ7ePNrHaWUw7kzsz-45" style="edgeStyle=orthogonalEdgeStyle;curved=1;jumpStyle=arc;orthogonalLoop=1;jettySize=auto;html=1;exitX=0.5;exitY=1;exitDx=0;exitDy=0;dashed=1;strokeColor=#FAFAFA;fontSize=14;fontColor=#FFFFFF;" parent="1" edge="1"><mxGeometry relative="1" as="geometry"><mxPoint x="1665" y="1080" as="sourcePoint"/><mxPoint x="1665" y="1080" as="targetPoint"/></mxGeometry></mxCell><mxCell id="qlJqQ7ePNrHaWUw7kzsz-46" style="edgeStyle=orthogonalEdgeStyle;curved=1;jumpStyle=arc;orthogonalLoop=1;jettySize=auto;html=1;exitX=0.5;exitY=1;exitDx=0;exitDy=0;dashed=1;strokeColor=#FAFAFA;fontSize=14;fontColor=#FFFFFF;" parent="1" edge="1"><mxGeometry relative="1" as="geometry"><mxPoint x="1450" y="1170" as="sourcePoint"/><mxPoint x="1450" y="1170" as="targetPoint"/></mxGeometry></mxCell><mxCell id="qlJqQ7ePNrHaWUw7kzsz-47" value="&lt;font color=&quot;#fcfcfc&quot;&gt;&lt;span style=&quot;font-size: 24px;&quot;&gt;&lt;b&gt;Trainings&lt;/b&gt;&lt;/span&gt;&lt;/font&gt;" style="text;whiteSpace=wrap;html=1;fontSize=14;fontColor=#FFFFFF;" parent="1" vertex="1"><mxGeometry x="1120" y="800" width="110" height="40" as="geometry"/></mxCell><mxCell id="qlJqQ7ePNrHaWUw7kzsz-48" value="" style="group;arcSize=27;fillColor=#4D4D4D;rounded=1;fillStyle=solid;align=left;verticalAlign=middle;fontStyle=1;startSize=40;comic=0;sketch=0;glass=0;swimlaneFillColor=#4D4D4D;opacity=40;shadow=0;" parent="1" vertex="1" connectable="0"><mxGeometry x="1130" y="1080" width="1020" height="100" as="geometry"/></mxCell><mxCell id="qlJqQ7ePNrHaWUw7kzsz-49" value="&lt;blockquote style=&quot;margin: 0 0 0 40px; border: none; padding: 0px;&quot;&gt;&lt;blockquote style=&quot;margin: 0 0 0 40px; border: none; padding: 0px;&quot;&gt;&lt;span style=&quot;font-size: 16px;&quot;&gt;&lt;b&gt;&amp;nbsp; &amp;nbsp;&amp;nbsp;&lt;/b&gt;&lt;/span&gt;&lt;span style=&quot;font-size: 16px; font-weight: 700;&quot;&gt;Training&amp;nbsp;&lt;/span&gt;&lt;span style=&quot;font-size: 16px;&quot;&gt;&lt;b&gt;&amp;amp; Comment &amp;amp;&amp;nbsp;&lt;/b&gt;&lt;/span&gt;&lt;b style=&quot;background-color: initial; font-size: 16px;&quot;&gt;Review &amp;amp;&amp;nbsp;&lt;/b&gt;&lt;span style=&quot;font-size: 16px; font-weight: 700; background-color: initial;&quot;&gt;Response&lt;/span&gt;&lt;/blockquote&gt;&lt;blockquote style=&quot;margin: 0 0 0 40px; border: none; padding: 0px;&quot;&gt;&lt;span style=&quot;font-size: 16px; background-color: initial;&quot;&gt;&amp;nbsp; &amp;nbsp; Хранение тренировок, отзывов,&lt;/span&gt;&lt;/blockquote&gt;&lt;blockquote style=&quot;margin: 0 0 0 40px; border: none; padding: 0px;&quot;&gt;&lt;span style=&quot;font-size: 16px;&quot;&gt;&amp;nbsp; &amp;nbsp; списка друзей и заявок на тренировку.&lt;/span&gt;&lt;br&gt;&lt;/blockquote&gt;&lt;/blockquote&gt;" style="rounded=1;whiteSpace=wrap;html=1;shadow=0;glass=0;comic=0;sketch=0;fillStyle=solid;strokeColor=#696969;fontColor=#FCFCFC;fillColor=#FFFFFF;gradientColor=none;fillOpacity=10;arcSize=20;opacity=60;align=left;" parent="qlJqQ7ePNrHaWUw7kzsz-48" vertex="1"><mxGeometry width="1020.0000000000002" height="100" as="geometry"/></mxCell><mxCell id="qlJqQ7ePNrHaWUw7kzsz-50" value="" style="sketch=0;html=1;aspect=fixed;strokeColor=none;shadow=0;align=center;verticalAlign=top;fillColor=#D6D6D6;shape=mxgraph.gcp2.cloud_monitoring;rounded=1;glass=0;comic=0;fillStyle=solid;strokeWidth=2;fontSize=14;fontColor=#FFFFFF;opacity=50;" parent="qlJqQ7ePNrHaWUw7kzsz-48" vertex="1"><mxGeometry x="29.993571428571435" y="20" width="54.00000000000001" height="60" as="geometry"/></mxCell><mxCell id="qlJqQ7ePNrHaWUw7kzsz-51" value="&lt;font size=&quot;1&quot; color=&quot;#ffffff&quot;&gt;&lt;b style=&quot;font-size: 12px;&quot;&gt;Reposotry&lt;/b&gt;&lt;/font&gt;" style="rounded=1;whiteSpace=wrap;html=1;shadow=0;glass=0;comic=0;sketch=0;fillStyle=solid;strokeColor=none;fillColor=#007FFF;arcSize=50;fillOpacity=100;" parent="qlJqQ7ePNrHaWUw7kzsz-48" vertex="1"><mxGeometry x="846.6029478260868" y="40" width="136.29" height="20" as="geometry"/></mxCell><mxCell id="qlJqQ7ePNrHaWUw7kzsz-52" value="" style="rounded=1;whiteSpace=wrap;html=1;dashed=1;arcSize=7;shadow=0;fillColor=none;strokeColor=#666666;fillOpacity=20;strokeWidth=2;" parent="1" vertex="1"><mxGeometry x="370" y="330" width="340" height="330" as="geometry"/></mxCell><mxCell id="qlJqQ7ePNrHaWUw7kzsz-53" value="&lt;font style=&quot;font-size: 16px;&quot; color=&quot;#fcfcfc&quot;&gt;Email&lt;/font&gt;" style="swimlane;whiteSpace=wrap;html=1;rounded=1;arcSize=27;startSize=40;swimlaneLine=1;fillOpacity=100;fillStyle=solid;fillColor=#1A1A1A;noLabel=0;container=0;collapsible=0;backgroundOutline=0;comic=0;sketch=0;glass=0;gradientColor=none;swimlaneFillColor=#4D4D4D;strokeColor=none;opacity=40;shadow=0;align=left;spacingLeft=24;" parent="1" vertex="1"><mxGeometry x="380" y="340" width="320" height="210" as="geometry"><mxRectangle x="130" y="310" width="140" height="30" as="alternateBounds"/></mxGeometry></mxCell><mxCell id="qlJqQ7ePNrHaWUw7kzsz-57" value="&lt;font style=&quot;font-size: 16px;&quot;&gt;&lt;b&gt;Email&lt;/b&gt;&lt;br&gt;Бизнес-логика &lt;br&gt;почтовой рассылки&lt;br&gt;&lt;/font&gt;&lt;blockquote style=&quot;margin: 0 0 0 40px; border: none; padding: 0px;&quot;&gt;&lt;br&gt;&lt;/blockquote&gt;" style="rounded=1;whiteSpace=wrap;html=1;shadow=0;glass=0;comic=0;sketch=0;fillStyle=solid;strokeColor=#696969;fontColor=#FCFCFC;fillColor=#FFFFFF;gradientColor=none;fillOpacity=10;arcSize=20;opacity=60;align=left;spacing=16;" parent="qlJqQ7ePNrHaWUw7kzsz-53" vertex="1"><mxGeometry x="20" y="110" width="280" height="80" as="geometry"/></mxCell><mxCell id="qlJqQ7ePNrHaWUw7kzsz-54" value="&lt;span style=&quot;font-size: 16px;&quot;&gt;&lt;b&gt;Email&lt;/b&gt;&lt;/span&gt;" style="rounded=1;whiteSpace=wrap;html=1;shadow=0;glass=0;comic=0;sketch=0;fillStyle=solid;strokeColor=#696969;fontColor=#FCFCFC;fillColor=#FFFFFF;gradientColor=none;fillOpacity=10;arcSize=20;opacity=60;align=left;spacing=16;" parent="qlJqQ7ePNrHaWUw7kzsz-53" vertex="1"><mxGeometry x="20" y="49" width="280" height="42" as="geometry"/></mxCell><mxCell id="qlJqQ7ePNrHaWUw7kzsz-55" value="&lt;font size=&quot;1&quot; color=&quot;#ffffff&quot;&gt;&lt;b style=&quot;font-size: 12px;&quot;&gt;Controller&lt;/b&gt;&lt;/font&gt;" style="rounded=1;whiteSpace=wrap;html=1;shadow=0;glass=0;comic=0;sketch=0;fillStyle=solid;strokeColor=none;fillColor=#9E009E;arcSize=50;fillOpacity=100;" parent="qlJqQ7ePNrHaWUw7kzsz-53" vertex="1"><mxGeometry x="198" y="60" width="90" height="20" as="geometry"/></mxCell><mxCell id="qlJqQ7ePNrHaWUw7kzsz-56" value="&lt;font size=&quot;1&quot; color=&quot;#ffffff&quot;&gt;&lt;b style=&quot;font-size: 12px;&quot;&gt;Service&lt;/b&gt;&lt;/font&gt;" style="rounded=1;whiteSpace=wrap;html=1;shadow=0;glass=0;comic=0;sketch=0;fillStyle=solid;strokeColor=none;fillColor=#009900;arcSize=50;fillOpacity=100;" parent="qlJqQ7ePNrHaWUw7kzsz-53" vertex="1"><mxGeometry x="198" y="150" width="90" height="20" as="geometry"/></mxCell><mxCell id="qlJqQ7ePNrHaWUw7kzsz-75" style="edgeStyle=orthogonalEdgeStyle;curved=1;jumpStyle=arc;orthogonalLoop=1;jettySize=auto;html=1;exitX=0.5;exitY=1;exitDx=0;exitDy=0;strokeColor=#FAFAFA;fontSize=16;fontColor=#FFFFFF;" parent="qlJqQ7ePNrHaWUw7kzsz-53" source="qlJqQ7ePNrHaWUw7kzsz-54" target="qlJqQ7ePNrHaWUw7kzsz-57" edge="1"><mxGeometry relative="1" as="geometry"/></mxCell><mxCell id="qlJqQ7ePNrHaWUw7kzsz-58" style="edgeStyle=orthogonalEdgeStyle;curved=1;jumpStyle=arc;orthogonalLoop=1;jettySize=auto;html=1;exitX=0.5;exitY=1;exitDx=0;exitDy=0;dashed=1;strokeColor=#FAFAFA;fontSize=14;fontColor=#FFFFFF;" parent="1" edge="1"><mxGeometry relative="1" as="geometry"><mxPoint x="1930" y="1130" as="sourcePoint"/><mxPoint x="1930" y="1130" as="targetPoint"/></mxGeometry></mxCell><mxCell id="qlJqQ7ePNrHaWUw7kzsz-59" value="&lt;font color=&quot;#fcfcfc&quot;&gt;&lt;span style=&quot;font-size: 24px;&quot;&gt;&lt;b&gt;Notification&lt;/b&gt;&lt;/span&gt;&lt;/font&gt;" style="text;whiteSpace=wrap;html=1;fontSize=14;fontColor=#FFFFFF;" parent="1" vertex="1"><mxGeometry x="370" y="290" width="70" height="40" as="geometry"/></mxCell><mxCell id="qlJqQ7ePNrHaWUw7kzsz-61" value="&lt;font style=&quot;font-size: 16px;&quot; color=&quot;#fcfcfc&quot;&gt;Files&lt;/font&gt;" style="swimlane;whiteSpace=wrap;html=1;rounded=1;arcSize=27;startSize=40;swimlaneLine=1;fillOpacity=100;fillStyle=solid;fillColor=#1A1A1A;noLabel=0;container=0;collapsible=0;backgroundOutline=0;comic=0;sketch=0;glass=0;gradientColor=none;swimlaneFillColor=#4D4D4D;strokeColor=none;opacity=40;shadow=0;align=left;spacingLeft=24;" parent="1" vertex="1"><mxGeometry x="1530" y="340" width="320" height="210" as="geometry"><mxRectangle x="130" y="310" width="140" height="30" as="alternateBounds"/></mxGeometry></mxCell><mxCell id="qlJqQ7ePNrHaWUw7kzsz-62" value="&lt;span style=&quot;font-size: 16px;&quot;&gt;&lt;b&gt;Files&lt;/b&gt;&lt;/span&gt;" style="rounded=1;whiteSpace=wrap;html=1;shadow=0;glass=0;comic=0;sketch=0;fillStyle=solid;strokeColor=#696969;fontColor=#FCFCFC;fillColor=#FFFFFF;gradientColor=none;fillOpacity=10;arcSize=20;opacity=60;align=left;spacing=16;" parent="qlJqQ7ePNrHaWUw7kzsz-61" vertex="1"><mxGeometry x="20" y="48" width="280" height="42" as="geometry"/></mxCell><mxCell id="qlJqQ7ePNrHaWUw7kzsz-63" value="&lt;font size=&quot;1&quot; color=&quot;#ffffff&quot;&gt;&lt;b style=&quot;font-size: 12px;&quot;&gt;Controller&lt;/b&gt;&lt;/font&gt;" style="rounded=1;whiteSpace=wrap;html=1;shadow=0;glass=0;comic=0;sketch=0;fillStyle=solid;strokeColor=none;fillColor=#9E009E;arcSize=50;fillOpacity=100;" parent="qlJqQ7ePNrHaWUw7kzsz-61" vertex="1"><mxGeometry x="198" y="60" width="90" height="20" as="geometry"/></mxCell><mxCell id="qlJqQ7ePNrHaWUw7kzsz-64" value="&lt;font size=&quot;1&quot; color=&quot;#ffffff&quot;&gt;&lt;b style=&quot;font-size: 12px;&quot;&gt;Service&lt;/b&gt;&lt;/font&gt;" style="rounded=1;whiteSpace=wrap;html=1;shadow=0;glass=0;comic=0;sketch=0;fillStyle=solid;strokeColor=none;fillColor=#009900;arcSize=50;fillOpacity=100;" parent="qlJqQ7ePNrHaWUw7kzsz-61" vertex="1"><mxGeometry x="198" y="135" width="90" height="20" as="geometry"/></mxCell><mxCell id="qlJqQ7ePNrHaWUw7kzsz-65" value="&lt;font style=&quot;font-size: 16px;&quot;&gt;&lt;b&gt;Files&lt;/b&gt;&lt;br&gt;Бизнес-логика &lt;br&gt;сохранения изображений&lt;br&gt;&lt;/font&gt;" style="rounded=1;whiteSpace=wrap;html=1;shadow=0;glass=0;comic=0;sketch=0;fillStyle=solid;strokeColor=#696969;fontColor=#FCFCFC;fillColor=#FFFFFF;gradientColor=none;fillOpacity=10;arcSize=20;opacity=60;align=left;spacing=16;" parent="1" vertex="1"><mxGeometry x="1550" y="450" width="282" height="80" as="geometry"/></mxCell><mxCell id="qlJqQ7ePNrHaWUw7kzsz-66" style="edgeStyle=orthogonalEdgeStyle;curved=1;jumpStyle=arc;orthogonalLoop=1;jettySize=auto;html=1;exitX=0.5;exitY=1;exitDx=0;exitDy=0;dashed=1;strokeColor=#FAFAFA;fontSize=14;fontColor=#FFFFFF;" parent="1" edge="1"><mxGeometry relative="1" as="geometry"><mxPoint x="540" y="290" as="sourcePoint"/><mxPoint x="540" y="290" as="targetPoint"/></mxGeometry></mxCell><mxCell id="qlJqQ7ePNrHaWUw7kzsz-67" value="&lt;font color=&quot;#fcfcfc&quot;&gt;&lt;span style=&quot;font-size: 24px;&quot;&gt;&lt;b&gt;Files&lt;/b&gt;&lt;/span&gt;&lt;/font&gt;" style="text;whiteSpace=wrap;html=1;fontSize=14;fontColor=#FFFFFF;" parent="1" vertex="1"><mxGeometry x="1520" y="290" width="70" height="40" as="geometry"/></mxCell><mxCell id="qlJqQ7ePNrHaWUw7kzsz-68" value="" style="endArrow=classic;html=1;dashed=1;strokeColor=#FAFAFA;fontSize=16;fontColor=#FFFFFF;curved=1;jumpStyle=arc;entryX=0.5;entryY=0;entryDx=0;entryDy=0;exitX=0.25;exitY=1;exitDx=0;exitDy=0;" parent="1" source="qlJqQ7ePNrHaWUw7kzsz-97" target="qlJqQ7ePNrHaWUw7kzsz-17" edge="1"><mxGeometry width="50" height="50" relative="1" as="geometry"><mxPoint x="960" y="420" as="sourcePoint"/><mxPoint x="729" y="1152.8000000000002" as="targetPoint"/><Array as="points"/></mxGeometry></mxCell><mxCell id="qlJqQ7ePNrHaWUw7kzsz-69" value="" style="endArrow=classic;html=1;dashed=1;strokeColor=#FAFAFA;fontSize=16;fontColor=#FFFFFF;jumpStyle=arc;exitX=0.5;exitY=1;exitDx=0;exitDy=0;rounded=0;entryX=0.5;entryY=0;entryDx=0;entryDy=0;" parent="1" source="qlJqQ7ePNrHaWUw7kzsz-97" target="qlJqQ7ePNrHaWUw7kzsz-33" edge="1"><mxGeometry width="50" height="50" relative="1" as="geometry"><mxPoint x="1209.0900000000001" y="959.9999999999998" as="sourcePoint"/><mxPoint x="1450" y="842" as="targetPoint"/><Array as="points"/></mxGeometry></mxCell><mxCell id="qlJqQ7ePNrHaWUw7kzsz-70" value="" style="endArrow=classic;html=1;dashed=1;strokeColor=#FAFAFA;fontSize=16;fontColor=#FFFFFF;curved=1;jumpStyle=arc;entryX=0.5;entryY=0;entryDx=0;entryDy=0;" parent="1" target="qlJqQ7ePNrHaWUw7kzsz-39" edge="1"><mxGeometry width="50" height="50" relative="1" as="geometry"><mxPoint x="1220" y="400" as="sourcePoint"/><mxPoint x="1579.0000000000005" y="1152.8000000000002" as="targetPoint"/></mxGeometry></mxCell><mxCell id="qlJqQ7ePNrHaWUw7kzsz-71" value="" style="endArrow=classic;html=1;dashed=1;strokeColor=#FAFAFA;fontSize=16;fontColor=#FFFFFF;curved=1;jumpStyle=arc;entryX=0.5;entryY=0;entryDx=0;entryDy=0;exitX=0.025;exitY=0.954;exitDx=0;exitDy=0;exitPerimeter=0;" parent="1" source="qlJqQ7ePNrHaWUw7kzsz-97" target="qlJqQ7ePNrHaWUw7kzsz-12" edge="1"><mxGeometry width="50" height="50" relative="1" as="geometry"><mxPoint x="359.09000000000015" y="960" as="sourcePoint"/><mxPoint x="359" y="1152.8000000000002" as="targetPoint"/><Array as="points"/></mxGeometry></mxCell><mxCell id="qlJqQ7ePNrHaWUw7kzsz-72" value="" style="endArrow=classic;html=1;dashed=1;strokeColor=#FAFAFA;fontSize=16;fontColor=#FFFFFF;jumpStyle=arc;exitX=0;exitY=0.5;exitDx=0;exitDy=0;rounded=0;" parent="1" source="qlJqQ7ePNrHaWUw7kzsz-97" edge="1"><mxGeometry width="50" height="50" relative="1" as="geometry"><mxPoint x="1670" y="818" as="sourcePoint"/><mxPoint x="610" y="450" as="targetPoint"/><Array as="points"/></mxGeometry></mxCell><mxCell id="qlJqQ7ePNrHaWUw7kzsz-73" value="" style="endArrow=classic;html=1;dashed=1;strokeColor=#FAFAFA;fontSize=16;fontColor=#FFFFFF;curved=1;jumpStyle=arc;entryX=0;entryY=0.5;entryDx=0;entryDy=0;exitX=1;exitY=0.5;exitDx=0;exitDy=0;" parent="1" source="qlJqQ7ePNrHaWUw7kzsz-97" target="qlJqQ7ePNrHaWUw7kzsz-61" edge="1"><mxGeometry width="50" height="50" relative="1" as="geometry"><mxPoint x="1100" y="430" as="sourcePoint"/><mxPoint x="1848" y="390" as="targetPoint"/><Array as="points"/></mxGeometry></mxCell><mxCell id="qlJqQ7ePNrHaWUw7kzsz-74" style="edgeStyle=orthogonalEdgeStyle;curved=1;jumpStyle=arc;orthogonalLoop=1;jettySize=auto;html=1;exitX=0.5;exitY=1;exitDx=0;exitDy=0;strokeColor=#FAFAFA;fontSize=16;fontColor=#FFFFFF;" parent="1" source="qlJqQ7ePNrHaWUw7kzsz-62" edge="1"><mxGeometry relative="1" as="geometry"><mxPoint x="1690" y="450" as="targetPoint"/><Array as="points"><mxPoint x="1690" y="440"/><mxPoint x="1690" y="440"/></Array></mxGeometry></mxCell><mxCell id="qlJqQ7ePNrHaWUw7kzsz-88" style="edgeStyle=orthogonalEdgeStyle;curved=1;jumpStyle=arc;orthogonalLoop=1;jettySize=auto;html=1;exitX=0.5;exitY=1;exitDx=0;exitDy=0;dashed=1;strokeColor=#FAFAFA;fontSize=14;fontColor=#FFFFFF;" parent="1" edge="1"><mxGeometry relative="1" as="geometry"><mxPoint x="1975" y="1179" as="sourcePoint"/><mxPoint x="1975" y="1179" as="targetPoint"/></mxGeometry></mxCell><mxCell id="qlJqQ7ePNrHaWUw7kzsz-90" value="" style="endArrow=classic;html=1;dashed=1;strokeColor=#FAFAFA;fontSize=16;fontColor=#FFFFFF;curved=1;jumpStyle=arc;exitX=0.75;exitY=1;exitDx=0;exitDy=0;entryX=0.5;entryY=0;entryDx=0;entryDy=0;" parent="1" source="qlJqQ7ePNrHaWUw7kzsz-97" target="qlJqQ7ePNrHaWUw7kzsz-79" edge="1"><mxGeometry width="50" height="50" relative="1" as="geometry"><mxPoint x="950" y="410" as="sourcePoint"/><mxPoint x="2190" y="1014" as="targetPoint"/></mxGeometry></mxCell><mxCell id="qlJqQ7ePNrHaWUw7kzsz-92" value="" style="rounded=1;whiteSpace=wrap;html=1;dashed=1;arcSize=7;shadow=0;fillColor=none;strokeColor=#666666;fillOpacity=20;strokeWidth=2;" parent="1" vertex="1"><mxGeometry x="930" y="190" width="340" height="240" as="geometry"/></mxCell><mxCell id="qlJqQ7ePNrHaWUw7kzsz-98" style="edgeStyle=orthogonalEdgeStyle;curved=1;jumpStyle=arc;orthogonalLoop=1;jettySize=auto;html=1;exitX=0.5;exitY=1;exitDx=0;exitDy=0;dashed=1;strokeColor=#FAFAFA;fontSize=14;fontColor=#FFFFFF;" parent="1" source="qlJqQ7ePNrHaWUw7kzsz-92" target="qlJqQ7ePNrHaWUw7kzsz-92" edge="1"><mxGeometry relative="1" as="geometry"/></mxCell><mxCell id="qlJqQ7ePNrHaWUw7kzsz-99" value="&lt;font color=&quot;#fcfcfc&quot;&gt;&lt;span style=&quot;font-size: 24px;&quot;&gt;&lt;b&gt;BFF&lt;/b&gt;&lt;/span&gt;&lt;/font&gt;" style="text;whiteSpace=wrap;html=1;fontSize=14;fontColor=#FFFFFF;" parent="1" vertex="1"><mxGeometry x="930" y="150" width="70" height="40" as="geometry"/></mxCell><mxCell id="qlJqQ7ePNrHaWUw7kzsz-100" value="" style="endArrow=classic;html=1;dashed=1;strokeColor=#FAFAFA;fontSize=16;fontColor=#FFFFFF;curved=1;jumpStyle=arc;entryX=0.5;entryY=0;entryDx=0;entryDy=0;startArrow=none;" parent="1" target="qlJqQ7ePNrHaWUw7kzsz-94" edge="1" source="qlJqQ7ePNrHaWUw7kzsz-102"><mxGeometry width="50" height="50" relative="1" as="geometry"><mxPoint x="1100" y="120" as="sourcePoint"/><mxPoint x="1242" y="320" as="targetPoint"/></mxGeometry></mxCell><mxCell id="qlJqQ7ePNrHaWUw7kzsz-107" style="edgeStyle=orthogonalEdgeStyle;rounded=0;orthogonalLoop=1;jettySize=auto;html=1;exitX=0.5;exitY=1;exitDx=0;exitDy=0;" parent="1" edge="1"><mxGeometry relative="1" as="geometry"><mxPoint x="1975" y="1179" as="sourcePoint"/><mxPoint x="1975" y="1179" as="targetPoint"/></mxGeometry></mxCell><mxCell id="qlJqQ7ePNrHaWUw7kzsz-79" value="&lt;font color=&quot;#fcfcfc&quot;&gt;&lt;span style=&quot;font-size: 16px;&quot;&gt;Review&lt;/span&gt;&lt;/font&gt;" style="swimlane;whiteSpace=wrap;html=1;rounded=1;arcSize=27;startSize=40;swimlaneLine=1;fillOpacity=100;fillStyle=solid;fillColor=#1A1A1A;noLabel=0;container=0;collapsible=0;backgroundOutline=0;comic=0;sketch=0;glass=0;gradientColor=none;swimlaneFillColor=#4D4D4D;strokeColor=none;opacity=40;shadow=0;align=left;spacingLeft=24;" parent="1" vertex="1"><mxGeometry x="1390" y="850" width="260" height="200" as="geometry"><mxRectangle x="130" y="310" width="140" height="30" as="alternateBounds"/></mxGeometry></mxCell><mxCell id="qlJqQ7ePNrHaWUw7kzsz-87" value="&lt;font style=&quot;&quot;&gt;&lt;span style=&quot;font-size: 16px;&quot;&gt;&lt;b&gt;Review&lt;/b&gt;&lt;/span&gt;&lt;br&gt;&lt;span style=&quot;font-size: 16px;&quot;&gt;Бизнес-логика &lt;/span&gt;&lt;br&gt;&lt;span style=&quot;font-size: 16px;&quot;&gt;отзывов&lt;/span&gt;&lt;br&gt;&lt;/font&gt;" style="rounded=1;whiteSpace=wrap;html=1;shadow=0;glass=0;comic=0;sketch=0;fillStyle=solid;strokeColor=#696969;fontColor=#FCFCFC;fillColor=#FFFFFF;gradientColor=none;fillOpacity=10;arcSize=20;opacity=60;align=left;spacing=16;" parent="qlJqQ7ePNrHaWUw7kzsz-79" vertex="1"><mxGeometry x="19" y="110" width="221" height="70" as="geometry"/></mxCell><mxCell id="qlJqQ7ePNrHaWUw7kzsz-80" value="&lt;span style=&quot;font-size: 16px;&quot;&gt;&lt;b&gt;Review&lt;/b&gt;&lt;/span&gt;" style="rounded=1;whiteSpace=wrap;html=1;shadow=0;glass=0;comic=0;sketch=0;fillStyle=solid;strokeColor=#696969;fontColor=#FCFCFC;fillColor=#FFFFFF;gradientColor=none;fillOpacity=10;arcSize=20;opacity=60;align=left;spacing=16;" parent="qlJqQ7ePNrHaWUw7kzsz-79" vertex="1"><mxGeometry x="20" y="48" width="220" height="42" as="geometry"/></mxCell><mxCell id="qlJqQ7ePNrHaWUw7kzsz-81" value="&lt;font size=&quot;1&quot; color=&quot;#ffffff&quot;&gt;&lt;b style=&quot;font-size: 12px;&quot;&gt;Controller&lt;/b&gt;&lt;/font&gt;" style="rounded=1;whiteSpace=wrap;html=1;shadow=0;glass=0;comic=0;sketch=0;fillStyle=solid;strokeColor=none;fillColor=#9E009E;arcSize=50;fillOpacity=100;" parent="qlJqQ7ePNrHaWUw7kzsz-79" vertex="1"><mxGeometry x="150" y="59" width="80" height="20" as="geometry"/></mxCell><mxCell id="qlJqQ7ePNrHaWUw7kzsz-82" value="&lt;font size=&quot;1&quot; color=&quot;#ffffff&quot;&gt;&lt;b style=&quot;font-size: 12px;&quot;&gt;Service&lt;/b&gt;&lt;/font&gt;" style="rounded=1;whiteSpace=wrap;html=1;shadow=0;glass=0;comic=0;sketch=0;fillStyle=solid;strokeColor=none;fillColor=#009900;arcSize=50;fillOpacity=100;" parent="qlJqQ7ePNrHaWUw7kzsz-79" vertex="1"><mxGeometry x="150" y="135" width="80" height="20" as="geometry"/></mxCell><mxCell id="qlJqQ7ePNrHaWUw7kzsz-91" style="edgeStyle=orthogonalEdgeStyle;curved=1;jumpStyle=arc;orthogonalLoop=1;jettySize=auto;html=1;exitX=0.5;exitY=1;exitDx=0;exitDy=0;entryX=0.5;entryY=0;entryDx=0;entryDy=0;strokeColor=#FAFAFA;fontSize=16;fontColor=#FFFFFF;" parent="qlJqQ7ePNrHaWUw7kzsz-79" source="qlJqQ7ePNrHaWUw7kzsz-80" target="qlJqQ7ePNrHaWUw7kzsz-87" edge="1"><mxGeometry relative="1" as="geometry"/></mxCell><mxCell id="qlJqQ7ePNrHaWUw7kzsz-110" style="edgeStyle=orthogonalEdgeStyle;rounded=0;orthogonalLoop=1;jettySize=auto;html=1;exitX=0.5;exitY=1;exitDx=0;exitDy=0;" parent="1" source="qlJqQ7ePNrHaWUw7kzsz-92" target="qlJqQ7ePNrHaWUw7kzsz-92" edge="1"><mxGeometry relative="1" as="geometry"/></mxCell><mxCell id="qlJqQ7ePNrHaWUw7kzsz-93" value="&lt;font style=&quot;font-size: 16px;&quot; color=&quot;#fcfcfc&quot;&gt;BFF&lt;/font&gt;" style="swimlane;whiteSpace=wrap;html=1;rounded=1;arcSize=27;startSize=40;swimlaneLine=1;fillOpacity=100;fillStyle=solid;fillColor=#1A1A1A;noLabel=0;container=0;collapsible=0;backgroundOutline=0;comic=0;sketch=0;glass=0;gradientColor=none;swimlaneFillColor=#4D4D4D;strokeColor=none;opacity=40;shadow=0;align=left;spacingLeft=24;" parent="1" vertex="1"><mxGeometry x="940" y="200" width="320" height="220" as="geometry"><mxRectangle x="130" y="310" width="140" height="30" as="alternateBounds"/></mxGeometry></mxCell><mxCell id="qlJqQ7ePNrHaWUw7kzsz-96" value="&lt;font size=&quot;1&quot; color=&quot;#ffffff&quot;&gt;&lt;b style=&quot;font-size: 12px;&quot;&gt;Service&lt;/b&gt;&lt;/font&gt;" style="rounded=1;whiteSpace=wrap;html=1;shadow=0;glass=0;comic=0;sketch=0;fillStyle=solid;strokeColor=none;fillColor=#009900;arcSize=50;fillOpacity=100;" parent="qlJqQ7ePNrHaWUw7kzsz-93" vertex="1"><mxGeometry x="198" y="145" width="90" height="20" as="geometry"/></mxCell><mxCell id="qlJqQ7ePNrHaWUw7kzsz-95" value="&lt;font size=&quot;1&quot; color=&quot;#ffffff&quot;&gt;&lt;b style=&quot;font-size: 12px;&quot;&gt;Controller&lt;/b&gt;&lt;/font&gt;" style="rounded=1;whiteSpace=wrap;html=1;shadow=0;glass=0;comic=0;sketch=0;fillStyle=solid;strokeColor=none;fillColor=#9E009E;arcSize=50;fillOpacity=100;" parent="qlJqQ7ePNrHaWUw7kzsz-93" vertex="1"><mxGeometry x="198" y="60" width="90" height="20" as="geometry"/></mxCell><mxCell id="qlJqQ7ePNrHaWUw7kzsz-101" style="edgeStyle=orthogonalEdgeStyle;curved=1;jumpStyle=arc;orthogonalLoop=1;jettySize=auto;html=1;exitX=0.5;exitY=1;exitDx=0;exitDy=0;entryX=0.5;entryY=0;entryDx=0;entryDy=0;strokeColor=#FAFAFA;fontSize=16;fontColor=#FFFFFF;" parent="qlJqQ7ePNrHaWUw7kzsz-93" source="qlJqQ7ePNrHaWUw7kzsz-94" target="qlJqQ7ePNrHaWUw7kzsz-97" edge="1"><mxGeometry relative="1" as="geometry"/></mxCell><mxCell id="qlJqQ7ePNrHaWUw7kzsz-97" value="&lt;font style=&quot;font-size: 16px;&quot;&gt;&lt;b&gt;BFF&lt;/b&gt;&lt;br&gt;Взаимодействие &lt;br&gt;с другими сервисами &lt;br&gt;приложеня&lt;br&gt;&lt;/font&gt;" style="rounded=1;whiteSpace=wrap;html=1;shadow=0;glass=0;comic=0;sketch=0;fillStyle=solid;strokeColor=#696969;fontColor=#FCFCFC;fillColor=#FFFFFF;gradientColor=none;fillOpacity=10;arcSize=20;opacity=60;align=left;spacing=16;dashed=1;" parent="qlJqQ7ePNrHaWUw7kzsz-93" vertex="1"><mxGeometry x="18" y="110" width="282" height="90" as="geometry"/></mxCell><mxCell id="qlJqQ7ePNrHaWUw7kzsz-94" value="&lt;span style=&quot;font-size: 16px;&quot;&gt;&lt;b&gt;BFF&lt;/b&gt;&lt;/span&gt;" style="rounded=1;whiteSpace=wrap;html=1;shadow=0;glass=0;comic=0;sketch=0;fillStyle=solid;strokeColor=#696969;fontColor=#FCFCFC;fillColor=#FFFFFF;gradientColor=none;fillOpacity=10;arcSize=20;opacity=60;align=left;spacing=16;" parent="qlJqQ7ePNrHaWUw7kzsz-93" vertex="1"><mxGeometry x="20" y="48" width="280" height="42" as="geometry"/></mxCell><mxCell id="qlJqQ7ePNrHaWUw7kzsz-111" value="&lt;div style=&quot;text-align: left;&quot;&gt;&lt;span style=&quot;background-color: initial; font-size: 24px;&quot;&gt;&lt;font color=&quot;#fcfcfc&quot;&gt;&lt;b&gt;Users&lt;/b&gt;&lt;/font&gt;&lt;/span&gt;&lt;/div&gt;" style="text;html=1;align=center;verticalAlign=middle;resizable=0;points=[];autosize=1;strokeColor=none;fillColor=none;" parent="1" vertex="1"><mxGeometry x="360" y="800" width="90" height="40" as="geometry"/></mxCell><mxCell id="qlJqQ7ePNrHaWUw7kzsz-140" value="Брокер&#10;сообщений" style="group;align=left;verticalAlign=middle;fillColor=#1A1A1A;fontStyle=1;startSize=40;rounded=1;arcSize=27;fillStyle=solid;comic=0;sketch=0;glass=0;swimlaneFillColor=#4D4D4D;opacity=40;shadow=0;spacingLeft=24;fontSize=16;fontColor=#FFFFFF;" parent="1" vertex="1" connectable="0"><mxGeometry x="380" y="570" width="320" height="80" as="geometry"/></mxCell><mxCell id="qlJqQ7ePNrHaWUw7kzsz-147" value="&lt;b&gt;&lt;font color=&quot;#ffffff&quot; style=&quot;font-size: 16px;&quot;&gt;Rabbit MQ&lt;/font&gt;&lt;/b&gt;" style="ellipse;shape=cloud;whiteSpace=wrap;html=1;align=center;rounded=1;shadow=0;glass=0;dashed=1;sketch=0;fillStyle=solid;strokeColor=none;fillColor=#007FFF;fontSize=12;verticalAlign=middle;fontColor=default;comic=0;strokeWidth=2;opacity=50;arcSize=50;" parent="qlJqQ7ePNrHaWUw7kzsz-140" vertex="1"><mxGeometry x="153.29" width="166.71" height="80" as="geometry"/></mxCell><mxCell id="qlJqQ7ePNrHaWUw7kzsz-149" style="edgeStyle=orthogonalEdgeStyle;curved=1;jumpStyle=arc;orthogonalLoop=1;jettySize=auto;html=1;strokeColor=#FAFAFA;fontSize=16;fontColor=#FFFFFF;" parent="1" edge="1"><mxGeometry relative="1" as="geometry"><mxPoint x="540" y="550" as="sourcePoint"/><mxPoint x="540" y="570" as="targetPoint"/><Array as="points"><mxPoint x="540" y="560"/><mxPoint x="540" y="560"/></Array></mxGeometry></mxCell><mxCell id="pVUHUzT7oEtDa4kpSRro-4" value="" style="endArrow=classic;html=1;rounded=1;exitX=0.5;exitY=1;exitDx=0;exitDy=0;entryX=0.124;entryY=0.02;entryDx=0;entryDy=0;entryPerimeter=0;strokeColor=#FAFAFA;fontSize=16;fontColor=#FFFFFF;" parent="1" source="qlJqQ7ePNrHaWUw7kzsz-33" target="qlJqQ7ePNrHaWUw7kzsz-49" edge="1"><mxGeometry width="50" height="50" relative="1" as="geometry"><mxPoint x="1290" y="1100" as="sourcePoint"/><mxPoint x="1340" y="1050" as="targetPoint"/></mxGeometry></mxCell><mxCell id="pVUHUzT7oEtDa4kpSRro-5" style="edgeStyle=orthogonalEdgeStyle;curved=1;jumpStyle=arc;orthogonalLoop=1;jettySize=auto;html=1;exitX=0.5;exitY=1;exitDx=0;exitDy=0;strokeColor=#FAFAFA;fontSize=16;fontColor=#FFFFFF;entryX=0.5;entryY=0;entryDx=0;entryDy=0;" parent="1" edge="1"><mxGeometry relative="1" as="geometry"><mxPoint x="2029.74" y="1050" as="sourcePoint"/><mxPoint x="2029.74" y="1080" as="targetPoint"/><Array as="points"><mxPoint x="2029.74" y="1060"/><mxPoint x="2029.74" y="1060"/></Array></mxGeometry></mxCell><mxCell id="LtYn4HzeGxHhy2dnJnDD-7" value="&lt;blockquote style=&quot;margin: 0 0 0 40px; border: none; padding: 0px;&quot;&gt;&lt;font color=&quot;#fcfcfc&quot;&gt;&lt;span style=&quot;font-size: 16px;&quot;&gt;Request&lt;/span&gt;&lt;/font&gt;&lt;br&gt;&lt;/blockquote&gt;" style="swimlane;whiteSpace=wrap;html=1;rounded=1;arcSize=27;startSize=40;swimlaneLine=1;fillOpacity=100;fillStyle=solid;fillColor=#1A1A1A;noLabel=0;container=0;collapsible=0;backgroundOutline=0;comic=0;sketch=0;glass=0;gradientColor=none;swimlaneFillColor=#4D4D4D;strokeColor=none;opacity=40;shadow=0;align=left;" parent="1" vertex="1"><mxGeometry x="1910" y="850" width="240" height="200" as="geometry"><mxRectangle x="130" y="310" width="140" height="30" as="alternateBounds"/></mxGeometry></mxCell><mxCell id="LtYn4HzeGxHhy2dnJnDD-8" value="&lt;span style=&quot;font-size: 16px; font-weight: 700;&quot;&gt;Request&lt;/span&gt;&lt;span style=&quot;font-size: 16px;&quot;&gt;&lt;br&gt;Бизнес-логика &lt;br&gt;заявок на тренировку&lt;br&gt;&lt;/span&gt;" style="rounded=1;whiteSpace=wrap;html=1;shadow=0;glass=0;comic=0;sketch=0;fillStyle=solid;strokeColor=#696969;fontColor=#FCFCFC;fillColor=#FFFFFF;gradientColor=none;fillOpacity=10;arcSize=20;opacity=60;align=left;spacing=16;" parent="LtYn4HzeGxHhy2dnJnDD-7" vertex="1"><mxGeometry x="20" y="110" width="200" height="70" as="geometry"/></mxCell><mxCell id="LtYn4HzeGxHhy2dnJnDD-9" style="edgeStyle=orthogonalEdgeStyle;curved=1;jumpStyle=arc;orthogonalLoop=1;jettySize=auto;html=1;exitX=0.5;exitY=1;exitDx=0;exitDy=0;strokeColor=#FAFAFA;fontSize=16;fontColor=#FFFFFF;" parent="LtYn4HzeGxHhy2dnJnDD-7" source="LtYn4HzeGxHhy2dnJnDD-10" target="LtYn4HzeGxHhy2dnJnDD-8" edge="1"><mxGeometry relative="1" as="geometry"><Array as="points"><mxPoint x="125" y="90"/><mxPoint x="125" y="90"/></Array></mxGeometry></mxCell><mxCell id="LtYn4HzeGxHhy2dnJnDD-10" value="&lt;font style=&quot;font-size: 14px;&quot;&gt;&lt;span style=&quot;font-size: 16px; font-weight: 700;&quot;&gt;Request&lt;/span&gt;&lt;br&gt;&lt;/font&gt;" style="rounded=1;whiteSpace=wrap;html=1;shadow=0;glass=0;comic=0;sketch=0;fillStyle=solid;strokeColor=#696969;fontColor=#FCFCFC;fillColor=#FFFFFF;gradientColor=none;fillOpacity=10;arcSize=20;opacity=60;align=left;spacing=16;" parent="LtYn4HzeGxHhy2dnJnDD-7" vertex="1"><mxGeometry x="20" y="44" width="210" height="46" as="geometry"/></mxCell><mxCell id="LtYn4HzeGxHhy2dnJnDD-11" value="&lt;font size=&quot;1&quot; color=&quot;#ffffff&quot;&gt;&lt;b style=&quot;font-size: 12px;&quot;&gt;Controller&lt;/b&gt;&lt;/font&gt;" style="rounded=1;whiteSpace=wrap;html=1;shadow=0;glass=0;comic=0;sketch=0;fillStyle=solid;strokeColor=none;fillColor=#9E009E;arcSize=50;fillOpacity=100;" parent="LtYn4HzeGxHhy2dnJnDD-7" vertex="1"><mxGeometry x="150" y="57" width="70" height="20" as="geometry"/></mxCell><mxCell id="LtYn4HzeGxHhy2dnJnDD-12" value="&lt;font size=&quot;1&quot; color=&quot;#ffffff&quot;&gt;&lt;b style=&quot;font-size: 12px;&quot;&gt;Service&lt;/b&gt;&lt;/font&gt;" style="rounded=1;whiteSpace=wrap;html=1;shadow=0;glass=0;comic=0;sketch=0;fillStyle=solid;strokeColor=none;fillColor=#009900;arcSize=50;fillOpacity=100;" parent="LtYn4HzeGxHhy2dnJnDD-7" vertex="1"><mxGeometry x="150" y="135" width="70" height="20" as="geometry"/></mxCell><mxCell id="LtYn4HzeGxHhy2dnJnDD-14" value="" style="endArrow=classic;html=1;rounded=1;exitX=0.5;exitY=1;exitDx=0;exitDy=0;strokeColor=#FAFAFA;fontSize=16;fontColor=#FFFFFF;" parent="1" source="qlJqQ7ePNrHaWUw7kzsz-79" edge="1"><mxGeometry width="50" height="50" relative="1" as="geometry"><mxPoint x="1275" y="1070" as="sourcePoint"/><mxPoint x="1520" y="1080" as="targetPoint"/></mxGeometry></mxCell><mxCell id="LtYn4HzeGxHhy2dnJnDD-18" value="" style="endArrow=classic;html=1;rounded=1;strokeColor=#FAFAFA;fontSize=16;fontColor=#FFFFFF;" parent="1" edge="1"><mxGeometry width="50" height="50" relative="1" as="geometry"><mxPoint x="1780" y="1050" as="sourcePoint"/><mxPoint x="1780" y="1080" as="targetPoint"/></mxGeometry></mxCell><mxCell id="8OhRVEOZH1Sj9hltEz8t-1" value="" style="endArrow=classic;html=1;dashed=1;strokeColor=#FAFAFA;fontSize=16;fontColor=#FFFFFF;curved=1;jumpStyle=arc;entryX=0.25;entryY=0;entryDx=0;entryDy=0;" parent="1" target="LtYn4HzeGxHhy2dnJnDD-7" edge="1"><mxGeometry width="50" height="50" relative="1" as="geometry"><mxPoint x="1240" y="380" as="sourcePoint"/><mxPoint x="2010" y="830" as="targetPoint"/></mxGeometry></mxCell><mxCell id="qlJqQ7ePNrHaWUw7kzsz-102" value="&lt;font style=&quot;font-size: 48px;&quot; color=&quot;#fcfcfc&quot;&gt;FitFriends&lt;/font&gt;" style="text;whiteSpace=wrap;html=1;fontSize=14;fontColor=#FFFFFF;" parent="1" vertex="1"><mxGeometry x="990" y="90" width="210" height="40" as="geometry"/></mxCell><mxCell id="2" value="" style="endArrow=none;html=1;dashed=1;strokeColor=#FAFAFA;fontSize=16;fontColor=#FFFFFF;curved=1;jumpStyle=arc;entryX=0.5;entryY=0;entryDx=0;entryDy=0;" edge="1" parent="1" target="qlJqQ7ePNrHaWUw7kzsz-102"><mxGeometry width="50" height="50" relative="1" as="geometry"><mxPoint x="1100" y="120.00000000000011" as="sourcePoint"/><mxPoint x="1100" y="248" as="targetPoint"/></mxGeometry></mxCell></root></mxGraphModel></diagram></mxfile>